<?xml version="1.0" encoding="UTF-8" standalone="no"?>
<!DOCTYPE svg PUBLIC "-//W3C//DTD SVG 1.1//EN"
 "http://www.w3.org/Graphics/SVG/1.1/DTD/svg11.dtd">
<!-- Generated by graphviz version 2.47.0 (20210316.0004)
 -->
<!-- Title: dependencies Pages: 1 -->
<svg width="504pt" height="284pt"
 viewBox="0.00 0.00 504.00 284.00" xmlns="http://www.w3.org/2000/svg" xmlns:xlink="http://www.w3.org/1999/xlink">
<g id="graph0" class="graph" transform="scale(1 1) rotate(0) translate(4 280)">
<title>dependencies</title>
<polygon fill="white" stroke="transparent" points="-4,4 -4,-280 500,-280 500,4 -4,4"/>
<text text-anchor="start" x="227.01" y="-42.4" font-family="Times-12" font-weight="bold" font-size="14.00">Legend</text>
<polygon fill="#ffffb3" stroke="transparent" points="14,-10 14,-30 34,-30 34,-10 14,-10"/>
<text text-anchor="start" x="37.63" y="-15.4" font-family="Times-12" font-size="14.00"> &#160;Declarations</text>
<polygon fill="#8dd3c7" stroke="transparent" points="127,-10 127,-30 147,-30 147,-10 127,-10"/>
<text text-anchor="start" x="150.73" y="-15.4" font-family="Times-12" font-size="14.00"> &#160;Module</text>
<polygon fill="#80b1d3" stroke="transparent" points="213,-10 213,-30 233,-30 233,-10 213,-10"/>
<text text-anchor="start" x="236.78" y="-15.4" font-family="Times-12" font-size="14.00"> &#160;Bootstrap</text>
<polygon fill="#fdb462" stroke="transparent" points="310,-10 310,-30 330,-30 330,-10 310,-10"/>
<text text-anchor="start" x="333.67" y="-15.4" font-family="Times-12" font-size="14.00"> &#160;Providers</text>
<polygon fill="#fb8072" stroke="transparent" points="406,-10 406,-30 426,-30 426,-10 406,-10"/>
<text text-anchor="start" x="429.73" y="-15.4" font-family="Times-12" font-size="14.00"> &#160;Exports</text>
<g id="clust1" class="cluster">
<title>cluster_CommonModule</title>
<polygon fill="none" stroke="black" stroke-dasharray="1,5" points="27,-70 27,-268 469,-268 469,-70 27,-70"/>
</g>
<g id="clust4" class="cluster">
<title>cluster_CommonModule_exports</title>
<polygon fill="none" stroke="black" points="191,-208 191,-260 297,-260 297,-208 191,-208"/>
</g>
<g id="clust3" class="cluster">
<title>cluster_CommonModule_imports</title>
<polygon fill="none" stroke="black" points="35,-78 35,-130 461,-130 461,-78 35,-78"/>
</g>
<!-- AuthModule -->
<g id="node1" class="node">
<title>AuthModule</title>
<polygon fill="#8dd3c7" stroke="black" points="452.55,-122 449.55,-126 428.55,-126 425.55,-122 365.45,-122 365.45,-86 452.55,-86 452.55,-122"/>
<text text-anchor="middle" x="409" y="-99.8" font-family="Times,serif" font-size="14.00">AuthModule</text>
</g>
<!-- CommonModule -->
<g id="node5" class="node">
<title>CommonModule</title>
<polygon fill="#8dd3c7" stroke="black" points="299.67,-187 296.67,-191 275.67,-191 272.67,-187 188.33,-187 188.33,-151 299.67,-151 299.67,-187"/>
<text text-anchor="middle" x="244" y="-164.8" font-family="Times,serif" font-size="14.00">CommonModule</text>
</g>
<!-- AuthModule&#45;&gt;CommonModule -->
<g id="edge1" class="edge">
<title>AuthModule&#45;&gt;CommonModule</title>
<path fill="none" stroke="black" d="M409,-122.11C409,-141.34 409,-169 409,-169 409,-169 309.86,-169 309.86,-169"/>
<polygon fill="black" stroke="black" points="309.86,-165.5 299.86,-169 309.86,-172.5 309.86,-165.5"/>
</g>
<!-- HealthModule -->
<g id="node2" class="node">
<title>HealthModule</title>
<polygon fill="#8dd3c7" stroke="black" points="347.37,-122 344.37,-126 323.37,-126 320.37,-122 250.63,-122 250.63,-86 347.37,-86 347.37,-122"/>
<text text-anchor="middle" x="299" y="-99.8" font-family="Times,serif" font-size="14.00">HealthModule</text>
</g>
<!-- HealthModule&#45;&gt;CommonModule -->
<g id="edge2" class="edge">
<title>HealthModule&#45;&gt;CommonModule</title>
<path fill="none" stroke="black" d="M275.2,-122.11C275.2,-122.11 275.2,-140.99 275.2,-140.99"/>
<polygon fill="black" stroke="black" points="271.7,-140.99 275.2,-150.99 278.7,-140.99 271.7,-140.99"/>
</g>
<!-- UserModule -->
<g id="node3" class="node">
<title>UserModule</title>
<polygon fill="#8dd3c7" stroke="black" points="232.98,-122 229.98,-126 208.98,-126 205.98,-122 147.02,-122 147.02,-86 232.98,-86 232.98,-122"/>
<text text-anchor="middle" x="190" y="-99.8" font-family="Times,serif" font-size="14.00">UserModule</text>
</g>
<!-- UserModule&#45;&gt;CommonModule -->
<g id="edge3" class="edge">
<title>UserModule&#45;&gt;CommonModule</title>
<path fill="none" stroke="black" d="M210.58,-122.11C210.58,-122.11 210.58,-140.99 210.58,-140.99"/>
<polygon fill="black" stroke="black" points="207.08,-140.99 210.58,-150.99 214.08,-140.99 207.08,-140.99"/>
</g>
<!-- UtilsModule -->
<g id="node4" class="node">
<title>UtilsModule</title>
<polygon fill="#8dd3c7" stroke="black" points="129.27,-122 126.27,-126 105.27,-126 102.27,-122 42.73,-122 42.73,-86 129.27,-86 129.27,-122"/>
<text text-anchor="middle" x="86" y="-99.8" font-family="Times,serif" font-size="14.00">UtilsModule</text>
</g>
<!-- UtilsModule&#45;&gt;CommonModule -->
<g id="edge4" class="edge">
<title>UtilsModule&#45;&gt;CommonModule</title>
<path fill="none" stroke="black" d="M86,-122.11C86,-141.34 86,-169 86,-169 86,-169 178.3,-169 178.3,-169"/>
<polygon fill="black" stroke="black" points="178.3,-172.5 188.3,-169 178.3,-165.5 178.3,-172.5"/>
</g>
<!-- UtilsModule  -->
<g id="node6" class="node">
<title>UtilsModule </title>
<polygon fill="#fb8072" stroke="black" points="289.27,-252 198.73,-252 198.73,-216 289.27,-216 289.27,-252"/>
<text text-anchor="middle" x="244" y="-229.8" font-family="Times,serif" font-size="14.00">UtilsModule </text>
</g>
<!-- CommonModule&#45;&gt;UtilsModule  -->
<g id="edge5" class="edge">
<title>CommonModule&#45;&gt;UtilsModule </title>
<path fill="none" stroke="black" stroke-dasharray="5,2" d="M244,-187.11C244,-187.11 244,-205.99 244,-205.99"/>
<polygon fill="black" stroke="black" points="240.5,-205.99 244,-215.99 247.5,-205.99 240.5,-205.99"/>
</g>
</g>
</svg>
