<?xml version="1.0" encoding="UTF-8" standalone="no"?>
<!DOCTYPE svg PUBLIC "-//W3C//DTD SVG 1.1//EN"
 "http://www.w3.org/Graphics/SVG/1.1/DTD/svg11.dtd">
<!-- Generated by graphviz version 2.47.0 (20210316.0004)
 -->
<!-- Title: dependencies Pages: 1 -->
<svg width="504pt" height="284pt"
 viewBox="0.00 0.00 504.00 284.00" xmlns="http://www.w3.org/2000/svg" xmlns:xlink="http://www.w3.org/1999/xlink">
<g id="graph0" class="graph" transform="scale(1 1) rotate(0) translate(4 280)">
<title>dependencies</title>
<polygon fill="white" stroke="transparent" points="-4,4 -4,-280 500,-280 500,4 -4,4"/>
<text text-anchor="start" x="227.01" y="-42.4" font-family="Times-12" font-weight="bold" font-size="14.00">Legend</text>
<polygon fill="#ffffb3" stroke="transparent" points="14,-10 14,-30 34,-30 34,-10 14,-10"/>
<text text-anchor="start" x="37.63" y="-15.4" font-family="Times-12" font-size="14.00"> &#160;Declarations</text>
<polygon fill="#8dd3c7" stroke="transparent" points="127,-10 127,-30 147,-30 147,-10 127,-10"/>
<text text-anchor="start" x="150.73" y="-15.4" font-family="Times-12" font-size="14.00"> &#160;Module</text>
<polygon fill="#80b1d3" stroke="transparent" points="213,-10 213,-30 233,-30 233,-10 213,-10"/>
<text text-anchor="start" x="236.78" y="-15.4" font-family="Times-12" font-size="14.00"> &#160;Bootstrap</text>
<polygon fill="#fdb462" stroke="transparent" points="310,-10 310,-30 330,-30 330,-10 310,-10"/>
<text text-anchor="start" x="333.67" y="-15.4" font-family="Times-12" font-size="14.00"> &#160;Providers</text>
<polygon fill="#fb8072" stroke="transparent" points="406,-10 406,-30 426,-30 426,-10 406,-10"/>
<text text-anchor="start" x="429.73" y="-15.4" font-family="Times-12" font-size="14.00"> &#160;Exports</text>
<g id="clust1" class="cluster">
<title>cluster_UserModule</title>
<polygon fill="none" stroke="black" stroke-dasharray="1,5" points="25,-70 25,-268 471,-268 471,-70 25,-70"/>
</g>
<g id="clust6" class="cluster">
<title>cluster_UserModule_providers</title>
<polygon fill="none" stroke="black" points="143,-78 143,-130 463,-130 463,-78 143,-78"/>
</g>
<g id="clust4" class="cluster">
<title>cluster_UserModule_exports</title>
<polygon fill="none" stroke="black" points="157,-208 157,-260 261,-260 261,-208 157,-208"/>
</g>
<g id="clust3" class="cluster">
<title>cluster_UserModule_imports</title>
<polygon fill="none" stroke="black" points="33,-78 33,-130 135,-130 135,-78 33,-78"/>
</g>
<!-- UtilsModule -->
<g id="node1" class="node">
<title>UtilsModule</title>
<polygon fill="#8dd3c7" stroke="black" points="127.27,-122 124.27,-126 103.27,-126 100.27,-122 40.73,-122 40.73,-86 127.27,-86 127.27,-122"/>
<text text-anchor="middle" x="84" y="-99.8" font-family="Times,serif" font-size="14.00">UtilsModule</text>
</g>
<!-- UserModule -->
<g id="node2" class="node">
<title>UserModule</title>
<polygon fill="#8dd3c7" stroke="black" points="251.98,-187 248.98,-191 227.98,-191 224.98,-187 166.02,-187 166.02,-151 251.98,-151 251.98,-187"/>
<text text-anchor="middle" x="209" y="-164.8" font-family="Times,serif" font-size="14.00">UserModule</text>
</g>
<!-- UtilsModule&#45;&gt;UserModule -->
<g id="edge1" class="edge">
<title>UtilsModule&#45;&gt;UserModule</title>
<path fill="none" stroke="black" d="M84,-122.11C84,-141.34 84,-169 84,-169 84,-169 155.98,-169 155.98,-169"/>
<polygon fill="black" stroke="black" points="155.98,-172.5 165.98,-169 155.98,-165.5 155.98,-172.5"/>
</g>
<!-- UserService  -->
<g id="node3" class="node">
<title>UserService </title>
<polygon fill="#fb8072" stroke="black" points="252.9,-252 165.1,-252 165.1,-216 252.9,-216 252.9,-252"/>
<text text-anchor="middle" x="209" y="-229.8" font-family="Times,serif" font-size="14.00">UserService </text>
</g>
<!-- UserModule&#45;&gt;UserService  -->
<g id="edge2" class="edge">
<title>UserModule&#45;&gt;UserService </title>
<path fill="none" stroke="black" stroke-dasharray="5,2" d="M209,-187.11C209,-187.11 209,-205.99 209,-205.99"/>
<polygon fill="black" stroke="black" points="205.5,-205.99 209,-215.99 212.5,-205.99 205.5,-205.99"/>
</g>
<!-- UserAdminService -->
<g id="node4" class="node">
<title>UserAdminService</title>
<ellipse fill="#fdb462" stroke="black" cx="370" cy="-104" rx="85.09" ry="18"/>
<text text-anchor="middle" x="370" y="-99.8" font-family="Times,serif" font-size="14.00">UserAdminService</text>
</g>
<!-- UserAdminService&#45;&gt;UserModule -->
<g id="edge3" class="edge">
<title>UserAdminService&#45;&gt;UserModule</title>
<path fill="none" stroke="black" d="M370,-122.11C370,-141.34 370,-169 370,-169 370,-169 262.15,-169 262.15,-169"/>
<polygon fill="black" stroke="black" points="262.15,-165.5 252.15,-169 262.15,-172.5 262.15,-165.5"/>
</g>
<!-- UserService -->
<g id="node5" class="node">
<title>UserService</title>
<ellipse fill="#fdb462" stroke="black" cx="209" cy="-104" rx="58.44" ry="18"/>
<text text-anchor="middle" x="209" y="-99.8" font-family="Times,serif" font-size="14.00">UserService</text>
</g>
<!-- UserService&#45;&gt;UserModule -->
<g id="edge4" class="edge">
<title>UserService&#45;&gt;UserModule</title>
<path fill="none" stroke="black" d="M209,-122.11C209,-122.11 209,-140.99 209,-140.99"/>
<polygon fill="black" stroke="black" points="205.5,-140.99 209,-150.99 212.5,-140.99 205.5,-140.99"/>
</g>
</g>
</svg>
