<?xml version="1.0" encoding="UTF-8" standalone="no"?>
<!DOCTYPE svg PUBLIC "-//W3C//DTD SVG 1.1//EN"
 "http://www.w3.org/Graphics/SVG/1.1/DTD/svg11.dtd">
<!-- Generated by graphviz version 2.47.0 (20210316.0004)
 -->
<!-- Title: dependencies Pages: 1 -->
<svg width="1890pt" height="211pt"
 viewBox="0.00 0.00 1890.00 211.00" xmlns="http://www.w3.org/2000/svg" xmlns:xlink="http://www.w3.org/1999/xlink">
<g id="graph0" class="graph" transform="scale(1 1) rotate(0) translate(4 207)">
<title>dependencies</title>
<polygon fill="white" stroke="transparent" points="-4,4 -4,-207 1886,-207 1886,4 -4,4"/>
<text text-anchor="start" x="920.01" y="-42.4" font-family="Times-12" font-weight="bold" font-size="14.00">Legend</text>
<polygon fill="#ffffb3" stroke="transparent" points="707,-10 707,-30 727,-30 727,-10 707,-10"/>
<text text-anchor="start" x="730.63" y="-15.4" font-family="Times-12" font-size="14.00"> &#160;Declarations</text>
<polygon fill="#8dd3c7" stroke="transparent" points="820,-10 820,-30 840,-30 840,-10 820,-10"/>
<text text-anchor="start" x="843.73" y="-15.4" font-family="Times-12" font-size="14.00"> &#160;Module</text>
<polygon fill="#80b1d3" stroke="transparent" points="906,-10 906,-30 926,-30 926,-10 906,-10"/>
<text text-anchor="start" x="929.78" y="-15.4" font-family="Times-12" font-size="14.00"> &#160;Bootstrap</text>
<polygon fill="#fdb462" stroke="transparent" points="1003,-10 1003,-30 1023,-30 1023,-10 1003,-10"/>
<text text-anchor="start" x="1026.67" y="-15.4" font-family="Times-12" font-size="14.00"> &#160;Providers</text>
<polygon fill="#fb8072" stroke="transparent" points="1099,-10 1099,-30 1119,-30 1119,-10 1099,-10"/>
<text text-anchor="start" x="1122.73" y="-15.4" font-family="Times-12" font-size="14.00"> &#160;Exports</text>
<g id="clust1" class="cluster">
<title>cluster_AuthModule</title>
<polygon fill="none" stroke="black" stroke-dasharray="1,5" points="8,-70 8,-195 1874,-195 1874,-70 8,-70"/>
</g>
<g id="clust3" class="cluster">
<title>cluster_AuthModule_imports</title>
<polygon fill="none" stroke="black" points="1660,-78 1660,-130 1866,-130 1866,-78 1660,-78"/>
</g>
<g id="clust6" class="cluster">
<title>cluster_AuthModule_providers</title>
<polygon fill="none" stroke="black" points="16,-78 16,-130 1652,-130 1652,-78 16,-78"/>
</g>
<!-- UserModule -->
<g id="node1" class="node">
<title>UserModule</title>
<polygon fill="#8dd3c7" stroke="black" points="1857.98,-122 1854.98,-126 1833.98,-126 1830.98,-122 1772.02,-122 1772.02,-86 1857.98,-86 1857.98,-122"/>
<text text-anchor="middle" x="1815" y="-99.8" font-family="Times,serif" font-size="14.00">UserModule</text>
</g>
<!-- AuthModule -->
<g id="node3" class="node">
<title>AuthModule</title>
<polygon fill="#8dd3c7" stroke="black" points="1027.55,-187 1024.55,-191 1003.55,-191 1000.55,-187 940.45,-187 940.45,-151 1027.55,-151 1027.55,-187"/>
<text text-anchor="middle" x="984" y="-164.8" font-family="Times,serif" font-size="14.00">AuthModule</text>
</g>
<!-- UserModule&#45;&gt;AuthModule -->
<g id="edge1" class="edge">
<title>UserModule&#45;&gt;AuthModule</title>
<path fill="none" stroke="black" d="M1815,-122.09C1815,-145.13 1815,-182 1815,-182 1815,-182 1037.8,-182 1037.8,-182"/>
<polygon fill="black" stroke="black" points="1037.8,-178.5 1027.8,-182 1037.8,-185.5 1037.8,-178.5"/>
</g>
<!-- UtilsModule -->
<g id="node2" class="node">
<title>UtilsModule</title>
<polygon fill="#8dd3c7" stroke="black" points="1754.27,-122 1751.27,-126 1730.27,-126 1727.27,-122 1667.73,-122 1667.73,-86 1754.27,-86 1754.27,-122"/>
<text text-anchor="middle" x="1711" y="-99.8" font-family="Times,serif" font-size="14.00">UtilsModule</text>
</g>
<!-- UtilsModule&#45;&gt;AuthModule -->
<g id="edge2" class="edge">
<title>UtilsModule&#45;&gt;AuthModule</title>
<path fill="none" stroke="black" d="M1711,-122.28C1711,-143.32 1711,-175 1711,-175 1711,-175 1037.57,-175 1037.57,-175"/>
<polygon fill="black" stroke="black" points="1037.57,-171.5 1027.57,-175 1037.57,-178.5 1037.57,-171.5"/>
</g>
<!-- AdminLocalStrategy -->
<g id="node4" class="node">
<title>AdminLocalStrategy</title>
<ellipse fill="#fdb462" stroke="black" cx="1552" cy="-104" rx="92.05" ry="18"/>
<text text-anchor="middle" x="1552" y="-99.8" font-family="Times,serif" font-size="14.00">AdminLocalStrategy</text>
</g>
<!-- AdminLocalStrategy&#45;&gt;AuthModule -->
<g id="edge3" class="edge">
<title>AdminLocalStrategy&#45;&gt;AuthModule</title>
<path fill="none" stroke="black" d="M1552,-122.11C1552,-141.34 1552,-169 1552,-169 1552,-169 1037.63,-169 1037.63,-169"/>
<polygon fill="black" stroke="black" points="1037.63,-165.5 1027.63,-169 1037.63,-172.5 1037.63,-165.5"/>
</g>
<!-- AuthAdminService -->
<g id="node5" class="node">
<title>AuthAdminService</title>
<ellipse fill="#fdb462" stroke="black" cx="1356" cy="-104" rx="86.26" ry="18"/>
<text text-anchor="middle" x="1356" y="-99.8" font-family="Times,serif" font-size="14.00">AuthAdminService</text>
</g>
<!-- AuthAdminService&#45;&gt;AuthModule -->
<g id="edge4" class="edge">
<title>AuthAdminService&#45;&gt;AuthModule</title>
<path fill="none" stroke="black" d="M1356,-122.02C1356,-139.37 1356,-163 1356,-163 1356,-163 1037.77,-163 1037.77,-163"/>
<polygon fill="black" stroke="black" points="1037.77,-159.5 1027.77,-163 1037.77,-166.5 1037.77,-159.5"/>
</g>
<!-- AuthCommonService -->
<g id="node6" class="node">
<title>AuthCommonService</title>
<ellipse fill="#fdb462" stroke="black" cx="1157" cy="-104" rx="95.01" ry="18"/>
<text text-anchor="middle" x="1157" y="-99.8" font-family="Times,serif" font-size="14.00">AuthCommonService</text>
</g>
<!-- AuthCommonService&#45;&gt;AuthModule -->
<g id="edge5" class="edge">
<title>AuthCommonService&#45;&gt;AuthModule</title>
<path fill="none" stroke="black" d="M1157,-122.24C1157,-137.57 1157,-157 1157,-157 1157,-157 1037.66,-157 1037.66,-157"/>
<polygon fill="black" stroke="black" points="1037.66,-153.5 1027.66,-157 1037.66,-160.5 1037.66,-153.5"/>
</g>
<!-- AuthService -->
<g id="node7" class="node">
<title>AuthService</title>
<ellipse fill="#fdb462" stroke="black" cx="984" cy="-104" rx="59.11" ry="18"/>
<text text-anchor="middle" x="984" y="-99.8" font-family="Times,serif" font-size="14.00">AuthService</text>
</g>
<!-- AuthService&#45;&gt;AuthModule -->
<g id="edge6" class="edge">
<title>AuthService&#45;&gt;AuthModule</title>
<path fill="none" stroke="black" d="M984,-122.11C984,-122.11 984,-140.99 984,-140.99"/>
<polygon fill="black" stroke="black" points="980.5,-140.99 984,-150.99 987.5,-140.99 980.5,-140.99"/>
</g>
<!-- JwtAdminRefreshStrategy -->
<g id="node8" class="node">
<title>JwtAdminRefreshStrategy</title>
<ellipse fill="#fdb462" stroke="black" cx="793" cy="-104" rx="113.46" ry="18"/>
<text text-anchor="middle" x="793" y="-99.8" font-family="Times,serif" font-size="14.00">JwtAdminRefreshStrategy</text>
</g>
<!-- JwtAdminRefreshStrategy&#45;&gt;AuthModule -->
<g id="edge7" class="edge">
<title>JwtAdminRefreshStrategy&#45;&gt;AuthModule</title>
<path fill="none" stroke="black" d="M793,-122.24C793,-137.57 793,-157 793,-157 793,-157 930.18,-157 930.18,-157"/>
<polygon fill="black" stroke="black" points="930.18,-160.5 940.18,-157 930.18,-153.5 930.18,-160.5"/>
</g>
<!-- JwtAdminStrategy -->
<g id="node9" class="node">
<title>JwtAdminStrategy</title>
<ellipse fill="#fdb462" stroke="black" cx="578" cy="-104" rx="83.4" ry="18"/>
<text text-anchor="middle" x="578" y="-99.8" font-family="Times,serif" font-size="14.00">JwtAdminStrategy</text>
</g>
<!-- JwtAdminStrategy&#45;&gt;AuthModule -->
<g id="edge8" class="edge">
<title>JwtAdminStrategy&#45;&gt;AuthModule</title>
<path fill="none" stroke="black" d="M578,-122.02C578,-139.37 578,-163 578,-163 578,-163 930.17,-163 930.17,-163"/>
<polygon fill="black" stroke="black" points="930.17,-166.5 940.17,-163 930.17,-159.5 930.17,-166.5"/>
</g>
<!-- JwtRefreshStrategy -->
<g id="node10" class="node">
<title>JwtRefreshStrategy</title>
<ellipse fill="#fdb462" stroke="black" cx="390" cy="-104" rx="86.81" ry="18"/>
<text text-anchor="middle" x="390" y="-99.8" font-family="Times,serif" font-size="14.00">JwtRefreshStrategy</text>
</g>
<!-- JwtRefreshStrategy&#45;&gt;AuthModule -->
<g id="edge9" class="edge">
<title>JwtRefreshStrategy&#45;&gt;AuthModule</title>
<path fill="none" stroke="black" d="M390,-122.11C390,-141.34 390,-169 390,-169 390,-169 930.32,-169 930.32,-169"/>
<polygon fill="black" stroke="black" points="930.32,-172.5 940.32,-169 930.32,-165.5 930.32,-172.5"/>
</g>
<!-- JwtStrategy -->
<g id="node11" class="node">
<title>JwtStrategy</title>
<ellipse fill="#fdb462" stroke="black" cx="229" cy="-104" rx="56.76" ry="18"/>
<text text-anchor="middle" x="229" y="-99.8" font-family="Times,serif" font-size="14.00">JwtStrategy</text>
</g>
<!-- JwtStrategy&#45;&gt;AuthModule -->
<g id="edge10" class="edge">
<title>JwtStrategy&#45;&gt;AuthModule</title>
<path fill="none" stroke="black" d="M229,-122.28C229,-143.32 229,-175 229,-175 229,-175 930.42,-175 930.42,-175"/>
<polygon fill="black" stroke="black" points="930.42,-178.5 940.42,-175 930.42,-171.5 930.42,-178.5"/>
</g>
<!-- LocalStrategy -->
<g id="node12" class="node">
<title>LocalStrategy</title>
<ellipse fill="#fdb462" stroke="black" cx="89" cy="-104" rx="65.41" ry="18"/>
<text text-anchor="middle" x="89" y="-99.8" font-family="Times,serif" font-size="14.00">LocalStrategy</text>
</g>
<!-- LocalStrategy&#45;&gt;AuthModule -->
<g id="edge11" class="edge">
<title>LocalStrategy&#45;&gt;AuthModule</title>
<path fill="none" stroke="black" d="M89,-122.09C89,-145.13 89,-182 89,-182 89,-182 930.23,-182 930.23,-182"/>
<polygon fill="black" stroke="black" points="930.23,-185.5 940.23,-182 930.23,-178.5 930.23,-185.5"/>
</g>
</g>
</svg>
