<?xml version="1.0" encoding="UTF-8" standalone="no"?>
<!DOCTYPE svg PUBLIC "-//W3C//DTD SVG 1.1//EN"
 "http://www.w3.org/Graphics/SVG/1.1/DTD/svg11.dtd">
<!-- Generated by graphviz version 2.47.0 (20210316.0004)
 -->
<!-- Title: dependencies Pages: 1 -->
<svg width="504pt" height="211pt"
 viewBox="0.00 0.00 504.00 211.00" xmlns="http://www.w3.org/2000/svg" xmlns:xlink="http://www.w3.org/1999/xlink">
<g id="graph0" class="graph" transform="scale(1 1) rotate(0) translate(4 207)">
<title>dependencies</title>
<polygon fill="white" stroke="transparent" points="-4,4 -4,-207 500,-207 500,4 -4,4"/>
<text text-anchor="start" x="227.01" y="-42.4" font-family="Times-12" font-weight="bold" font-size="14.00">Legend</text>
<polygon fill="#ffffb3" stroke="transparent" points="14,-10 14,-30 34,-30 34,-10 14,-10"/>
<text text-anchor="start" x="37.63" y="-15.4" font-family="Times-12" font-size="14.00"> &#160;Declarations</text>
<polygon fill="#8dd3c7" stroke="transparent" points="127,-10 127,-30 147,-30 147,-10 127,-10"/>
<text text-anchor="start" x="150.73" y="-15.4" font-family="Times-12" font-size="14.00"> &#160;Module</text>
<polygon fill="#80b1d3" stroke="transparent" points="213,-10 213,-30 233,-30 233,-10 213,-10"/>
<text text-anchor="start" x="236.78" y="-15.4" font-family="Times-12" font-size="14.00"> &#160;Bootstrap</text>
<polygon fill="#fdb462" stroke="transparent" points="310,-10 310,-30 330,-30 330,-10 310,-10"/>
<text text-anchor="start" x="333.67" y="-15.4" font-family="Times-12" font-size="14.00"> &#160;Providers</text>
<polygon fill="#fb8072" stroke="transparent" points="406,-10 406,-30 426,-30 426,-10 406,-10"/>
<text text-anchor="start" x="429.73" y="-15.4" font-family="Times-12" font-size="14.00"> &#160;Exports</text>
<g id="clust1" class="cluster">
<title>cluster_AppModule</title>
<polygon fill="none" stroke="black" stroke-dasharray="1,5" points="124,-70 124,-195 372,-195 372,-70 124,-70"/>
</g>
<g id="clust3" class="cluster">
<title>cluster_AppModule_imports</title>
<polygon fill="none" stroke="black" points="132,-78 132,-130 364,-130 364,-78 132,-78"/>
</g>
<!-- CommonModule -->
<g id="node1" class="node">
<title>CommonModule</title>
<polygon fill="#8dd3c7" stroke="black" points="355.67,-122 352.67,-126 331.67,-126 328.67,-122 244.33,-122 244.33,-86 355.67,-86 355.67,-122"/>
<text text-anchor="middle" x="300" y="-99.8" font-family="Times,serif" font-size="14.00">CommonModule</text>
</g>
<!-- AppModule -->
<g id="node3" class="node">
<title>AppModule</title>
<polygon fill="#8dd3c7" stroke="black" points="282.66,-187 279.66,-191 258.66,-191 255.66,-187 199.34,-187 199.34,-151 282.66,-151 282.66,-187"/>
<text text-anchor="middle" x="241" y="-164.8" font-family="Times,serif" font-size="14.00">AppModule</text>
</g>
<!-- CommonModule&#45;&gt;AppModule -->
<g id="edge1" class="edge">
<title>CommonModule&#45;&gt;AppModule</title>
<path fill="none" stroke="black" d="M263.5,-122.11C263.5,-122.11 263.5,-140.99 263.5,-140.99"/>
<polygon fill="black" stroke="black" points="260,-140.99 263.5,-150.99 267,-140.99 260,-140.99"/>
</g>
<!-- CoreModule -->
<g id="node2" class="node">
<title>CoreModule</title>
<polygon fill="#8dd3c7" stroke="black" points="226.26,-122 223.26,-126 202.26,-126 199.26,-122 139.74,-122 139.74,-86 226.26,-86 226.26,-122"/>
<text text-anchor="middle" x="183" y="-99.8" font-family="Times,serif" font-size="14.00">CoreModule</text>
</g>
<!-- CoreModule&#45;&gt;AppModule -->
<g id="edge2" class="edge">
<title>CoreModule&#45;&gt;AppModule</title>
<path fill="none" stroke="black" d="M212.78,-122.11C212.78,-122.11 212.78,-140.99 212.78,-140.99"/>
<polygon fill="black" stroke="black" points="209.28,-140.99 212.78,-150.99 216.28,-140.99 209.28,-140.99"/>
</g>
</g>
</svg>
